<?xml version="1.0" encoding="UTF-8"?> <!-- Generator: Adobe Illustrator 24.2.0, SVG Export Plug-In . SVG Version: 6.00 Build 0) --> <svg xmlns="http://www.w3.org/2000/svg" xmlns:xlink="http://www.w3.org/1999/xlink" version="1.1" id="Capa_1" x="0px" y="0px" viewBox="0 0 169 129" style="enable-background:new 0 0 169 129;" xml:space="preserve"> <style type="text/css"> .st0{fill:#1C1C1C;} .st1{fill:#0ECAB9;} </style> <path class="st0" d="M65.9,105.7c-22.7,0-41-18.4-41-41s18.4-41,41-41c12.3,0,23.4,5.5,30.9,14.1l18.4-10.8 C103.9,12.1,86,2.6,65.9,2.6C31.6,2.6,3.8,30.4,3.8,64.7s27.8,62.1,62.1,62.1c19.2,0,36.4-8.7,47.8-22.5L96,92.6 C88.5,100.7,77.8,105.7,65.9,105.7z"></path> <path class="st1" d="M65.9,23.7c-22.7,0-41,18.4-41,41s18.4,41,41,41c11.9,0,22.6-5.1,30.1-13.2L77.7,80.4 c-3.3,2.5-7.4,3.9-11.8,3.9c-10.8,0-19.6-8.8-19.6-19.6s8.8-19.6,19.6-19.6c4.4,0,8.5,1.5,11.8,3.9l19.1-11.3 C89.3,29.1,78.3,23.7,65.9,23.7z"></path> <g> <path class="st0" d="M92.7,58.9c0.7,0,1.2-0.2,1.6-0.6c0.4-0.4,0.7-0.9,0.7-1.4h2.5c0,0.7-0.3,1.4-0.7,2c-0.4,0.6-1,1.1-1.7,1.5 c-0.7,0.4-1.5,0.6-2.4,0.6c-1.6,0-2.9-0.5-3.9-1.6c-1-1.1-1.4-2.5-1.4-4.4v-0.3c0-1.8,0.5-3.2,1.4-4.3s2.2-1.6,3.9-1.6 c1.4,0,2.5,0.4,3.4,1.2c0.9,0.8,1.3,1.9,1.4,3.2h-2.5c0-0.7-0.3-1.2-0.7-1.7c-0.4-0.4-1-0.6-1.6-0.6c-0.8,0-1.5,0.3-2,0.9 c-0.5,0.6-0.7,1.5-0.7,2.8v0.4c0,1.3,0.2,2.2,0.7,2.8C91.2,58.6,91.9,58.9,92.7,58.9z"></path> <path class="st0" d="M99.5,46.1c0-0.4,0.1-0.7,0.4-1c0.3-0.3,0.6-0.4,1.1-0.4c0.5,0,0.8,0.1,1.1,0.4c0.3,0.3,0.4,0.6,0.4,1 c0,0.4-0.1,0.7-0.4,1c-0.3,0.3-0.6,0.4-1.1,0.4c-0.5,0-0.8-0.1-1.1-0.4C99.7,46.8,99.5,46.5,99.5,46.1z M102.3,60.8h-2.6V49.1h2.6 V60.8z"></path> <path class="st0" d="M107.6,49.1l0.1,1.3c0.9-1,2-1.6,3.4-1.6c2.4,0,3.7,1.4,3.7,4.2v7.7h-2.6v-7.6c0-0.7-0.2-1.3-0.5-1.6 s-0.8-0.5-1.6-0.5c-1.1,0-1.8,0.5-2.4,1.4v8.3h-2.6V49.1H107.6z"></path> <path class="st0" d="M122.6,61c-1.7,0-3-0.5-4-1.6c-1-1-1.5-2.4-1.5-4.2v-0.3c0-1.2,0.2-2.2,0.7-3.1c0.4-0.9,1.1-1.6,1.9-2.1 c0.8-0.5,1.7-0.8,2.7-0.8c1.6,0,2.8,0.5,3.7,1.5c0.9,1,1.3,2.4,1.3,4.3v1.1h-7.6c0.1,1,0.4,1.7,1,2.3c0.6,0.6,1.3,0.8,2.1,0.8 c1.2,0,2.2-0.5,2.9-1.5l1.4,1.3c-0.5,0.7-1.1,1.2-1.9,1.6C124.4,60.8,123.6,61,122.6,61z M122.3,51c-0.7,0-1.3,0.3-1.7,0.8 c-0.4,0.5-0.7,1.2-0.8,2.1h5v-0.2c-0.1-0.9-0.3-1.5-0.7-2C123.6,51.2,123,51,122.3,51z"></path> </g> <g> <g> <path class="st1" d="M93.2,80c0.7,0,1.3-0.2,1.7-0.6c0.5-0.4,0.7-0.9,0.7-1.5h2.6c0,0.8-0.3,1.5-0.7,2.2c-0.5,0.7-1.1,1.2-1.9,1.6 c-0.8,0.4-1.6,0.6-2.5,0.6c-1.8,0-3.1-0.6-4.2-1.7c-1-1.1-1.5-2.7-1.5-4.7v-0.3c0-1.9,0.5-3.4,1.5-4.6c1-1.1,2.4-1.7,4.2-1.7 c1.5,0,2.7,0.4,3.6,1.3c0.9,0.9,1.4,2,1.5,3.4h-2.6c0-0.7-0.3-1.3-0.7-1.8c-0.5-0.5-1-0.7-1.8-0.7c-0.9,0-1.6,0.3-2.1,1 c-0.5,0.7-0.7,1.7-0.8,3v0.5c0,1.4,0.2,2.4,0.7,3C91.6,79.6,92.3,80,93.2,80z"></path> <path class="st1" d="M107.9,82c-0.1-0.2-0.2-0.6-0.3-1.2c-0.9,0.9-2,1.4-3.3,1.4c-1.3,0-2.3-0.4-3.1-1.1c-0.8-0.7-1.2-1.6-1.2-2.7 c0-1.3,0.5-2.4,1.5-3.1c1-0.7,2.4-1.1,4.3-1.1h1.7v-0.8c0-0.6-0.2-1.2-0.5-1.6c-0.4-0.4-0.9-0.6-1.7-0.6c-0.6,0-1.2,0.2-1.6,0.5 c-0.4,0.3-0.6,0.7-0.6,1.2h-2.8c0-0.7,0.2-1.3,0.7-1.9c0.5-0.6,1.1-1.1,1.9-1.4c0.8-0.3,1.7-0.5,2.6-0.5c1.5,0,2.6,0.4,3.5,1.1 c0.9,0.7,1.3,1.8,1.3,3.1v5.6c0,1.1,0.2,2,0.5,2.7V82H107.9z M104.8,80c0.6,0,1.1-0.1,1.6-0.4c0.5-0.3,0.9-0.6,1.1-1.1v-2.4H106 c-1,0-1.8,0.2-2.3,0.5c-0.5,0.4-0.8,0.9-0.8,1.5c0,0.5,0.2,1,0.5,1.3C103.8,79.8,104.2,80,104.8,80z"></path> <path class="st1" d="M116.3,82h-2.8V64.2h2.8V82z"></path> <path class="st1" d="M119.3,66.2c0-0.4,0.1-0.8,0.4-1.1c0.3-0.3,0.7-0.4,1.2-0.4c0.5,0,0.9,0.1,1.2,0.4c0.3,0.3,0.4,0.6,0.4,1.1 c0,0.4-0.1,0.8-0.4,1.1c-0.3,0.3-0.7,0.4-1.2,0.4c-0.5,0-0.9-0.1-1.2-0.4C119.5,67,119.3,66.7,119.3,66.2z M122.3,82h-2.8V69.5 h2.8V82z"></path> <path class="st1" d="M124.8,75.6c0-1.9,0.4-3.5,1.3-4.6c0.9-1.2,2.1-1.8,3.6-1.8c1.3,0,2.4,0.5,3.2,1.4v-6.4h2.8V82h-2.5l-0.1-1.3 c-0.8,1-2,1.5-3.4,1.5c-1.5,0-2.7-0.6-3.6-1.8C125.3,79.3,124.8,77.7,124.8,75.6z M127.7,75.9c0,1.3,0.2,2.3,0.7,3 c0.5,0.7,1.2,1.1,2.1,1.1c1.1,0,2-0.5,2.5-1.5v-5.3c-0.5-1-1.3-1.5-2.5-1.5c-0.9,0-1.6,0.4-2.1,1.1 C127.9,73.4,127.7,74.4,127.7,75.9z"></path> <path class="st1" d="M146.2,82c-0.1-0.2-0.2-0.6-0.3-1.2c-0.9,0.9-2,1.4-3.3,1.4c-1.3,0-2.3-0.4-3.1-1.1c-0.8-0.7-1.2-1.6-1.2-2.7 c0-1.3,0.5-2.4,1.5-3.1c1-0.7,2.4-1.1,4.3-1.1h1.7v-0.8c0-0.6-0.2-1.2-0.5-1.6c-0.4-0.4-0.9-0.6-1.7-0.6c-0.6,0-1.2,0.2-1.6,0.5 c-0.4,0.3-0.6,0.7-0.6,1.2h-2.8c0-0.7,0.2-1.3,0.7-1.9c0.5-0.6,1.1-1.1,1.9-1.4c0.8-0.3,1.7-0.5,2.6-0.5c1.5,0,2.6,0.4,3.5,1.1 c0.9,0.7,1.3,1.8,1.3,3.1v5.6c0,1.1,0.2,2,0.5,2.7V82H146.2z M143.1,80c0.6,0,1.1-0.1,1.6-0.4c0.5-0.3,0.9-0.6,1.1-1.1v-2.4h-1.5 c-1,0-1.8,0.2-2.3,0.5c-0.5,0.4-0.8,0.9-0.8,1.5c0,0.5,0.2,1,0.5,1.3C142.1,79.8,142.5,80,143.1,80z"></path> <path class="st1" d="M151,75.6c0-1.9,0.4-3.5,1.3-4.6c0.9-1.2,2.1-1.8,3.6-1.8c1.3,0,2.4,0.5,3.2,1.4v-6.4h2.8V82h-2.5l-0.1-1.3 c-0.8,1-2,1.5-3.4,1.5c-1.5,0-2.7-0.6-3.6-1.8C151.5,79.3,151,77.7,151,75.6z M153.8,75.9c0,1.3,0.2,2.3,0.7,3 c0.5,0.7,1.2,1.1,2.1,1.1c1.1,0,2-0.5,2.5-1.5v-5.3c-0.5-1-1.3-1.5-2.5-1.5c-0.9,0-1.6,0.4-2.1,1.1 C154.1,73.4,153.8,74.4,153.8,75.9z"></path> </g> </g> </svg> 